<svg t="1642079749591" class="icon" viewBox="0 0 1034 1024" version="1.1" xmlns="http://www.w3.org/2000/svg" p-id="12705" width="200" height="200">
    <path d="M511.017374 34.909091C255.625051 34.909091 47.838384 242.695758 47.838384 498.088081a463.17899 463.17899 0 1 0 926.35798 0C974.196364 242.695758 766.422626 34.909091 511.017374 34.909091zM813.252525 791.389091A356.951919 356.951919 0 0 0 613.520808 639.482828a210.747475 210.747475 0 0 0 107.416566-183.505454c0-116.092121-94.448485-210.540606-210.540606-210.540606s-210.540606 94.383838-210.540606 210.540606A210.747475 210.747475 0 0 0 407.272727 639.508687a357.30101 357.30101 0 0 0-199.240404 151.052929 422.231919 422.231919 0 0 1-118.134949-292.460606c0-232.171313 188.88404-421.081212 421.081212-421.081212s421.081212 188.89697 421.081212 421.081212A422.283636 422.283636 0 0 1 813.252525 791.389091z m0 0" fill="#0066cc" p-id="12706"></path>
</svg>