<svg t="1642256645892" class="icon" viewBox="0 0 1536 1024" version="1.1" xmlns="http://www.w3.org/2000/svg" p-id="1293" width="200" height="200">
    <path d="M394.88512 204.8C227.69664 204.8 92.16 340.33664 92.16 507.52512c0 167.19872 135.53664 302.73536 302.72512 302.73536 48.2304 0 94.93504-11.32544 137.05216-32.73728 62.94528-32 148.4288-112.64 260.08576-243.39456l22.72256-26.60352-22.7328-26.60352C680.47872 350.3616 595.1488 269.79328 532.35712 237.75232A301.59872 301.59872 0 0 0 394.88512 204.8z m0 81.92c35.3792 0 69.4784 8.2944 100.22912 23.99232l2.34496 1.2288c45.70112 24.2688 114.4832 87.72608 203.80672 189.3376l5.4784 6.2464-10.19904 11.6224c-88.65792 100.352-156.76416 162.48832-201.728 185.344a219.68896 219.68896 0 0 1-99.93216 23.84896C272.93696 728.34048 174.08 629.48352 174.08 507.52512 174.08 385.57696 272.93696 286.72 394.88512 286.72z" fill="#FF8E36" p-id="1294"></path>
    <path d="M1139.7632 204.8c167.19872 0 302.73536 135.53664 302.73536 302.72512 0 167.19872-135.53664 302.73536-302.73536 302.73536-48.2304 0-94.9248-11.32544-137.04192-32.73728-62.94528-32-148.4288-112.64-260.096-243.39456l-22.71232-26.60352 22.7328-26.60352C854.15936 350.3616 939.52 269.79328 1002.2912 237.75232A301.59872 301.59872 0 0 1 1139.7632 204.8z m0 81.92c-35.36896 0-69.46816 8.2944-100.22912 23.99232l-2.33472 1.2288c-44.09344 23.40864-109.69088 83.32288-194.47808 178.78016l-14.80704 16.80384 10.1888 11.6224c88.65792 100.352 156.7744 162.48832 201.73824 185.344a219.68896 219.68896 0 0 0 99.92192 23.84896c121.9584 0 220.81536-98.85696 220.81536-220.81536 0-121.94816-98.8672-220.80512-220.81536-220.80512z" fill="#EA5413" p-id="1295"></path>
    <path d="M767.32416 452.352c8.0896 9.24672 16.31232 18.76992 24.68864 28.5696l22.7328 26.60352-22.7328 26.60352a3245.3632 3245.3632 0 0 1-24.68864 28.59008 3415.7568 3415.7568 0 0 1-24.68864-28.59008l-22.72256-26.60352 22.7328-26.60352c6.9632-8.16128 13.824-16.11776 20.60288-23.88992z" fill="#C63819" p-id="1296"></path>
</svg>