<svg t="1642062067714" class="icon" viewBox="0 0 1024 1024" version="1.1" xmlns="http://www.w3.org/2000/svg" p-id="8383" width="200" height="200">
    <path d="M128 0h768Q1024 0 1024 128v768q0 128-128 128h-768Q0 1024 0 896v-768Q0 0 128 0z" fill="#F4AC38" p-id="8384"></path>
    <path d="M814.276923 391.68l-290.658461-191.606154A21.858462 21.858462 0 0 0 512 196.923077a21.464615 21.464615 0 0 0-11.815385 3.347692L209.526154 391.876923a28.16 28.16 0 0 0-10.043077 35.446154 22.252308 22.252308 0 0 0 31.704615 11.224615h1.378462l271.950769-179.593846a13.784615 13.784615 0 0 1 14.966154 0l271.950769 179.593846a22.055385 22.055385 0 0 0 32.295385-9.058461 28.356923 28.356923 0 0 0-8.073846-36.233846z" fill="#FFFFFF" p-id="8385"></path>
    <path d="M739.052308 442.88l-209.132308-136.073846a32.098462 32.098462 0 0 0-35.84 0l-209.132308 136.073846a40.763077 40.763077 0 0 0-17.723077 34.461538V787.692308a38.006154 38.006154 0 0 0 35.643077 39.384615h418.067693a37.809231 37.809231 0 0 0 35.643077-39.384615V477.341538a41.156923 41.156923 0 0 0-17.526154-34.461538zM630.153846 680.369231L567.926154 728.615385a5.316923 5.316923 0 0 1-3.347692 1.181538 6.301538 6.301538 0 0 1-6.498462-6.695385v-30.72h-169.156923a17.526154 17.526154 0 0 1-16.738462-18.510769v-7.68a17.92 17.92 0 0 1 16.738462-18.510769h167.581538v-34.658462a7.68 7.68 0 0 1 1.181539-4.135384 5.907692 5.907692 0 0 1 8.861538-1.575385L630.153846 657.723077a25.403077 25.403077 0 0 1 3.150769 3.347692 15.163077 15.163077 0 0 1-3.150769 19.298462z m12.209231-150.055385a10.830769 10.830769 0 0 1-3.150769 3.544616l-71.483077 55.72923v-43.716923h-169.747693a17.92 17.92 0 0 1-16.541538-18.707692v-7.68a17.92 17.92 0 0 1 16.738462-18.510769h167.581538L564.775385 452.923077l74.043077 59.076923a14.769231 14.769231 0 0 1 3.150769 18.313846z" fill="#FFFFFF" p-id="8386"></path>
</svg>