<svg t="1642061928381" class="icon" viewBox="0 0 1024 1024" version="1.1" xmlns="http://www.w3.org/2000/svg" p-id="3904" width="200" height="200">
    <path d="M0 0m273.066667 0l477.866666 0q273.066667 0 273.066667 273.066667l0 477.866666q0 273.066667-273.066667 273.066667l-477.866666 0q-273.066667 0-273.066667-273.066667l0-477.866666q0-273.066667 273.066667-273.066667Z" fill="#F2984E" p-id="3905"></path>
    <path d="M733.866667 750.933333h-443.733334a34.133333 34.133333 0 0 1-34.133333-34.133333V375.466667a34.133333 34.133333 0 0 1 34.133333-34.133334h68.266667v34.133334a51.2 51.2 0 0 0 51.2 51.2 51.2 51.2 0 0 0 51.2-51.2v-34.133334h85.333333v34.133334a51.2 51.2 0 0 0 51.2 51.2 51.2 51.2 0 0 0 51.2-51.2v-34.133334h85.333334a34.133333 34.133333 0 0 1 34.133333 34.133334v341.333333a34.133333 34.133333 0 0 1-34.133333 34.133333z m-273.066667-153.6a17.066667 17.066667 0 0 0-17.066667 17.066667 17.066667 17.066667 0 0 0 17.066667 17.066667h102.4a17.066667 17.066667 0 0 0 17.066667-17.066667 17.066667 17.066667 0 0 0-17.066667-17.066667z m-34.133333-68.266666a17.066667 17.066667 0 0 0-17.066667 17.066666 17.066667 17.066667 0 0 0 17.066667 17.066667h170.666666a17.066667 17.066667 0 0 0 17.066667-17.066667 17.066667 17.066667 0 0 0-17.066667-17.066666z m170.666666-136.533334a17.066667 17.066667 0 0 1-17.066666-17.066666v-68.266667a17.066667 17.066667 0 0 1 17.066666-17.066667 17.066667 17.066667 0 0 1 17.066667 17.066667v68.266667a17.066667 17.066667 0 0 1-17.066667 17.066666z m-187.733333 0a17.066667 17.066667 0 0 1-17.066667-17.066666v-68.266667a17.066667 17.066667 0 0 1 17.066667-17.066667 17.066667 17.066667 0 0 1 17.066667 17.066667v68.266667a17.066667 17.066667 0 0 1-17.066667 17.066666z" fill="#FFFFFF" p-id="3906"></path>
</svg>